<svg viewBox="0 0 160 40" xmlns="http://www.w3.org/2000/svg">
  <g id="mark">
    <path d="M2 8 L18 8 L18 16 L12 16 L12 18 L20 18 L20 32 L2 32 L2 24 L8 24 L8 22 L2 22 Z" fill="#802662"/>
    <path d="M22 8 L38 8 L38 16 L32 16 L32 18 L38 18 L38 32 L22 32 L22 24 L28 24 L28 22 L22 22 Z" fill="#802662"/>
    <rect x="18" y="12" width="4" height="4" fill="#FFB266"/>
    <rect x="8" y="20" width="4" height="4" fill="#FFB266"/>
    <rect x="28" y="20" width="4" height="4" fill="#FFB266"/>
  </g>
  <text x="80" y="28" font-family="Avenir, Arial, sans-serif" font-size="20" font-weight="400" fill="#802662" letter-spacing="1px">BOXLESS</text>
  <text x="144" y="28" font-family="Avenir, Arial, sans-serif" font-size="20" font-weight="300" fill="#802662" letter-spacing="1px">AI</text>
</svg>